<svg width="120" height="47" viewBox="0 0 120 47" fill="none" xmlns="http://www.w3.org/2000/svg">
<g clip-path="url(#clip0)">
<path d="M67.4413 19.3823L59.9865 21.3226L39.3021 26.6901C31.9972 28.4818 25.6074 30.8681 19.4501 28.7791C11.0803 25.1958 11.2303 15.8733 17.4701 5.95605C6.4379 14.9812 -13.4141 43.8409 13.4352 46.7551C16.8551 47.2011 22.945 46.0117 29.5598 43.2536L59.9865 30.8756L120 6.55079L67.4413 19.3823Z" fill="white"/>
<path d="M21.9256 12.9383H18.5067L20.537 0.0710754H23.9647C24.9959 0.0710754 25.7635 0.109161 26.2674 0.185333C26.7713 0.255646 27.2079 0.378693 27.577 0.554474C28.2274 0.859161 28.7196 1.28983 29.0536 1.84647C29.3875 2.39725 29.5545 3.05936 29.5545 3.83279C29.5545 4.8992 29.2352 5.79276 28.5965 6.51346C27.9637 7.2283 27.0907 7.67654 25.9774 7.85818L29.1063 12.9383H25.1864L22.6991 8.02518L21.9256 12.9383ZM23.0243 5.95096H24.1053C24.785 5.95096 25.3065 5.79568 25.6698 5.48514C26.0331 5.17459 26.2147 4.72635 26.2147 4.14041C26.2147 3.58963 26.0448 3.19119 25.7049 2.9451C25.3651 2.69315 24.8202 2.56717 24.0702 2.56717H23.5604L23.0243 5.95096ZM34.3094 10.073H38.2909L37.8426 12.9383H30.4247L32.4549 0.0710754H39.8729L39.4071 3.04178H35.4256L35.1004 5.14236H38.7918L38.3612 7.93729H34.6522L34.3094 10.073ZM41.3846 8.50858C41.9237 9.08865 42.4364 9.51053 42.9227 9.7742C43.4149 10.0379 43.9217 10.1697 44.4432 10.1697C44.8768 10.1697 45.2225 10.0642 45.4803 9.8533C45.7381 9.64236 45.867 9.36404 45.867 9.01834C45.867 8.54959 45.3456 8.04276 44.3026 7.49783C44.203 7.4451 44.1239 7.40408 44.0653 7.37479C43.0516 6.84744 42.3573 6.34061 41.9823 5.85428C41.6073 5.36795 41.4198 4.77615 41.4198 4.07889C41.4198 2.8074 41.8475 1.76736 42.703 0.958771C43.5643 0.150177 44.6717 -0.25412 46.0252 -0.25412C46.7401 -0.25412 47.4256 -0.128143 48.0819 0.12381C48.744 0.375763 49.368 0.747833 49.9539 1.24002L48.4774 3.78006C48.0145 3.38162 47.5926 3.08572 47.2118 2.89236C46.8309 2.69901 46.4793 2.60233 46.1571 2.60233C45.8055 2.60233 45.5125 2.70486 45.2782 2.90994C45.0438 3.10916 44.9266 3.35526 44.9266 3.64822C44.9266 4.01151 45.3661 4.41873 46.245 4.8699C46.5555 5.02811 46.7957 5.15701 46.9657 5.25662C47.868 5.75467 48.495 6.26443 48.8465 6.78592C49.1981 7.30154 49.3739 7.94901 49.3739 8.7283C49.3739 10.1053 48.8963 11.2068 47.9413 12.033C46.9862 12.8533 45.6883 13.2635 44.0477 13.2635C43.1864 13.2635 42.3807 13.0818 41.6307 12.7185C40.8807 12.3494 40.2039 11.8045 39.6004 11.0838L41.3846 8.50858ZM50.5692 12.9383L52.5995 0.0710754H56.0623L55.2625 5.0369H59.7625L60.5448 0.0710754H64.0164L61.9774 12.9383H58.5057L59.3319 7.6824H54.8495L54.0233 12.9383H50.5692ZM63.3485 12.9383L69.7909 0.0710754H74.0975L76.8309 12.9383H73.3416L72.8231 10.5125H68.3231L67.0926 12.9383H63.3485ZM69.6151 7.64725H72.3309L71.742 4.64139C71.6834 4.34256 71.6395 4.07596 71.6102 3.84158C71.5809 3.60721 71.5633 3.38748 71.5575 3.1824C71.4344 3.53397 71.3202 3.84451 71.2147 4.11404C71.1151 4.37772 71.036 4.57401 70.9774 4.70291L69.6151 7.64725ZM77.534 12.9383L79.5643 0.0710754H83.0272L81.4715 9.86209H85.7254L85.242 12.9383H77.534ZM85.3739 12.9383L91.8163 0.0710754H96.1229L98.8563 12.9383H95.367L94.8485 10.5125H90.3485L89.118 12.9383H85.3739ZM91.6405 7.64725H94.3563L93.7674 4.64139C93.7088 4.34256 93.6649 4.07596 93.6356 3.84158C93.6063 3.60721 93.5887 3.38748 93.5829 3.1824C93.4598 3.53397 93.3456 3.84451 93.2401 4.11404C93.1405 4.37772 93.0614 4.57401 93.0028 4.70291L91.6405 7.64725Z" fill="white"/>
</g>
<defs>
<clipPath id="clip0">
<rect width="120" height="47" fill="white"/>
</clipPath>
</defs>
</svg>
